<svg xmlns="http://www.w3.org/2000/svg" viewBox="0 0 110 110" width="100%" height="100%">
  <path fill="#3776AB" d="M55 2C42.8 2 33.7 11.1 33.7 23.3v7.6h22.8v3.3H21.7C9.5 34.2.4 43.3.4 55.5c0 12.2 9.1 21.3 21.3 21.3h7.6V54h33.4V30.9c0-12.2-9.1-21.3-21.3-21.3H33.7V23.3c0 7.2 5.8 13 13 13h10.9V23.3C57.6 11.1 48.5 2 36.3 2H55z"/>
  <path fill="#FFE873" d="M55 108c12.2 0 21.3-9.1 21.3-21.3v-7.6H53.5v-3.3h34.8c12.2 0 21.3-9.1 21.3-21.3 0-12.2-9.1-21.3-21.3-21.3h-7.6v22.8H47.3v23.1c0 12.2 9.1 21.3 21.3 21.3h15.1v-13c0-7.2-5.8-13-13-13H59.8v13c0 12.2 9.1 21.3 21.3 21.3H55z"/>
</svg>
